<?xml version="1.0" encoding="UTF-8" standalone="no"?>
<!DOCTYPE svg PUBLIC "-//W3C//DTD SVG 1.1//EN" "http://www.w3.org/Graphics/SVG/1.1/DTD/svg11.dtd">
<!-- Created with Vectornator (http://vectornator.io/) -->
<svg height="100%" stroke-miterlimit="10" style="fill-rule:nonzero;clip-rule:evenodd;stroke-linecap:round;stroke-linejoin:round;" version="1.1" viewBox="0 0 89.363 161.718" width="100%" xml:space="preserve" xmlns="http://www.w3.org/2000/svg" xmlns:vectornator="http://vectornator.io" xmlns:xlink="http://www.w3.org/1999/xlink">
<defs/>
<g id="Layer-1" vectornator:layerName="Layer 1">
<g opacity="1" vectornator:layerName="g">
<path d="M68.263 161.718L21.1 161.718C13.945 161.718 8.145 155.918 8.145 148.763L8.145 28.06C8.145 12.563 20.708 0 36.205 0L53.157 0C68.654 0 81.217 12.563 81.217 28.06L81.217 148.763C81.218 155.918 75.418 161.718 68.263 161.718Z" fill="#2a89e4" fill-rule="nonzero" opacity="1" stroke="none" vectornator:layerName="path"/>
<path d="M53.612 154.44L35.752 154.44C21.368 154.44 14.161 152.023 14.161 137.639L19.406 71.694L9.707 30.768C9.707 15.684 21.935 3.456 37.019 3.456L52.343 3.456C67.427 3.456 79.655 15.684 79.655 30.768L69.956 71.694L75.201 137.639C75.203 152.024 67.995 154.44 53.612 154.44Z" fill="#54a0e9" fill-rule="nonzero" opacity="1" stroke="none" vectornator:layerName="path"/>
<path d="M9.523 50.851C11.543 50.508 10.901 54.445 9.523 55.343C8.145 56.241 0 58.038 0 58.038C0 58.038 0 52.468 9.523 50.851Z" fill="#2a89e4" fill-rule="nonzero" opacity="1" stroke="none" vectornator:layerName="path"/>
<path d="M10.808 42.046C10.808 42.046 16.351 69.179 16.89 74.39C17.429 79.601 17.968 133.507 16.89 135.843C15.812 138.179 14.16 137.64 14.16 137.64C14.16 137.64 10.808 131.351 10.808 99.547C10.808 67.742 10.808 42.046 10.808 42.046Z" fill="#45474a" fill-rule="nonzero" opacity="1" stroke="none" vectornator:layerName="path"/>
<path d="M12.578 147.163C12.937 148.601 19.047 155.069 19.406 156.327C19.765 157.585 16.176 159.111 12.578 155.249C8.98 151.387 12.578 147.163 12.578 147.163Z" fill="#ff6166" fill-rule="nonzero" opacity="1" stroke="none" vectornator:layerName="path"/>
<path d="M20.484 154.44C20.484 154.44 24.886 155.608 26.683 158.932C26.683 158.932 21.023 158.663 20.484 154.44Z" fill="#ffcc00" fill-rule="nonzero" opacity="1" stroke="none" vectornator:layerName="path"/>
<path d="M12.218 21.383C12.218 21.383 11.23 8.985 23.583 5.93C23.583 5.93 20.304 17.429 12.218 21.383Z" fill="#e9e8d8" fill-rule="nonzero" opacity="1" stroke="none" vectornator:layerName="path"/>
<path d="M79.84 50.851C77.82 50.508 78.462 54.445 79.84 55.343C81.218 56.241 89.363 58.038 89.363 58.038C89.363 58.038 89.364 52.468 79.84 50.851Z" fill="#2a89e4" fill-rule="nonzero" opacity="1" stroke="none" vectornator:layerName="path"/>
<path d="M78.555 42.046C78.555 42.046 73.012 69.179 72.473 74.39C71.934 79.601 71.395 133.507 72.473 135.843C73.551 138.179 75.203 137.64 75.203 137.64C75.203 137.64 78.555 131.351 78.555 99.547C78.555 67.742 78.555 42.046 78.555 42.046Z" fill="#45474a" fill-rule="nonzero" opacity="1" stroke="none" vectornator:layerName="path"/>
<path d="M19.406 71.695C19.406 71.695 13.048 44.383 14.161 39.351C15.274 34.32 29.253 30.546 44.682 30.546C60.111 30.546 74.091 34.319 75.203 39.351C76.316 44.382 69.958 71.695 69.958 71.695C69.958 71.695 61.429 70.078 44.682 70.078C27.935 70.077 19.406 71.695 19.406 71.695ZM44.682 151.835C25.935 151.835 20.484 147.163 20.484 147.163L16.711 150.038C27.852 158.124 44.682 157.226 44.682 157.226C44.682 157.226 61.513 158.124 72.653 150.038L68.88 147.163C68.879 147.163 63.429 151.835 44.682 151.835Z" fill="#45474a" fill-rule="nonzero" opacity="1" stroke="none" vectornator:layerName="path"/>
<path d="M76.786 147.163C76.427 148.601 70.317 155.069 69.958 156.327C69.599 157.585 73.188 159.111 76.786 155.249C80.383 151.387 76.786 147.163 76.786 147.163Z" fill="#ff6166" fill-rule="nonzero" opacity="1" stroke="none" vectornator:layerName="path"/>
<path d="M68.879 154.44C68.879 154.44 64.477 155.608 62.68 158.932C62.68 158.932 68.34 158.663 68.879 154.44Z" fill="#ffcc00" fill-rule="nonzero" opacity="1" stroke="none" vectornator:layerName="path"/>
<path d="M77.145 21.383C77.145 21.383 78.133 8.985 65.78 5.93C65.78 5.93 69.059 17.429 77.145 21.383Z" fill="#e9e8d8" fill-rule="nonzero" opacity="1" stroke="none" vectornator:layerName="path"/>
</g>
</g>
</svg>
