<?xml version="1.0" encoding="UTF-8" standalone="no"?>
<!DOCTYPE svg PUBLIC "-//W3C//DTD SVG 1.1//EN" "http://www.w3.org/Graphics/SVG/1.1/DTD/svg11.dtd">
<!-- Created with Vectornator (http://vectornator.io/) -->
<svg height="100%" stroke-miterlimit="10" style="fill-rule:nonzero;clip-rule:evenodd;stroke-linecap:round;stroke-linejoin:round;" version="1.1" viewBox="1.41087e-07 0 89.4104 176.811" width="100%" xml:space="preserve" xmlns="http://www.w3.org/2000/svg" xmlns:vectornator="http://vectornator.io" xmlns:xlink="http://www.w3.org/1999/xlink">
<defs/>
<g id="Layer-1" vectornator:layerName="Layer 1">
<g opacity="1" vectornator:layerName="g">
<path d="M20.3402 176.811L69.0692 176.811C75.7912 176.811 81.2412 171.361 81.2412 164.639L81.2412 27.277C81.2412 12.212 69.0292 0 53.9642 0L35.4462 0C20.3812 0 8.1692 12.212 8.1692 27.277L8.1692 164.639C8.1692 171.362 13.6182 176.811 20.3402 176.811Z" fill="#6f686c" fill-rule="nonzero" opacity="1" stroke="none" vectornator:layerName="path"/>
<path d="M25.3672 172.298L64.0422 172.298C72.5102 172.298 79.3752 165.433 79.3752 156.965L67.6592 124.703L67.9852 64.966L79.3762 31.826C79.3762 16.742 67.1482 4.514 52.0642 4.514L37.3472 4.514C22.2632 4.514 10.0352 16.742 10.0352 31.826L21.4262 64.966L21.7522 124.703L10.0362 156.965C10.0342 165.433 16.8992 172.298 25.3672 172.298Z" fill="#807a7e" fill-rule="nonzero" opacity="1" stroke="none" vectornator:layerName="path"/>
<path d="M26.5122 4.414C26.7822 3.763 26.8532 3.055 26.7642 2.359C21.9242 4.304 17.8272 7.702 15.0112 12.017C16.7812 10.531 18.7622 9.296 20.8832 8.378C23.0492 7.441 25.6082 6.594 26.5122 4.414Z" fill="#e9e8d8" fill-rule="nonzero" opacity="1" stroke="none" vectornator:layerName="path"/>
<path d="M62.8982 4.414C62.6282 3.763 62.5572 3.055 62.6462 2.359C67.4862 4.304 71.5832 7.702 74.3992 12.017C72.6292 10.531 70.6482 9.296 68.5272 8.378C66.3612 7.441 63.8022 6.594 62.8982 4.414Z" fill="#e9e8d8" fill-rule="nonzero" opacity="1" stroke="none" vectornator:layerName="path"/>
<path d="M18.6732 94.31C18.5612 85.228 18.3362 76.908 18.3362 73.851C18.3362 64.687 11.5082 56.062 11.5082 56.062L11.5082 91.598C13.8522 92.609 16.2662 93.452 18.6732 94.31Z" fill="#45474a" fill-rule="nonzero" opacity="1" stroke="none" vectornator:layerName="path"/>
<path d="M18.4822 116.896C18.7672 111.131 18.7722 103.189 18.6892 95.618C16.2712 94.951 13.8712 94.223 11.5092 93.373L11.5092 120.327C13.8772 119.272 16.2082 118.137 18.4822 116.896Z" fill="#45474a" fill-rule="nonzero" opacity="1" stroke="none" vectornator:layerName="path"/>
<path d="M11.5082 122.301L11.5082 131.71C11.5082 131.71 17.4382 131.53 18.3362 119.312C18.3612 118.979 18.3832 118.631 18.4052 118.275C16.1422 119.688 13.9012 121.137 11.5082 122.301Z" fill="#45474a" fill-rule="nonzero" opacity="1" stroke="none" vectornator:layerName="path"/>
<path d="M10.0712 51.39L2.0752 53.575C0.619196 53.973-0.264804 55.448 0.0711956 56.92L0.368196 58.218L10.0712 56.062L10.0712 51.39Z" fill="#6f686c" fill-rule="nonzero" opacity="1" stroke="none" vectornator:layerName="path"/>
<path d="M53.9292 0.719L35.4812 0.719C33.2522 0.719 31.0872 0.992 29.0132 1.496C31.3612 3.093 34.1382 3.953 36.9872 3.953L52.4222 3.953C55.2722 3.953 58.0492 3.093 60.3962 1.496C58.3232 0.992 56.1582 0.719 53.9292 0.719Z" fill="#45474a" fill-rule="nonzero" opacity="1" stroke="none" vectornator:layerName="path"/>
<path d="M70.7362 94.31C70.8482 85.228 71.0732 76.908 71.0732 73.851C71.0732 64.687 77.9012 56.062 77.9012 56.062L77.9012 91.598C75.5582 92.609 73.1442 93.452 70.7362 94.31Z" fill="#45474a" fill-rule="nonzero" opacity="1" stroke="none" vectornator:layerName="path"/>
<path d="M70.9282 116.896C70.6432 111.131 70.6382 103.189 70.7212 95.618C73.1392 94.951 75.5392 94.223 77.9022 93.373L77.9022 120.327C75.5332 119.272 73.2022 118.137 70.9282 116.896Z" fill="#45474a" fill-rule="nonzero" opacity="1" stroke="none" vectornator:layerName="path"/>
<path d="M77.9022 122.301L77.9022 131.71C77.9022 131.71 71.9722 131.53 71.0742 119.312C71.0502 118.979 71.0272 118.631 71.0062 118.275C73.2672 119.688 75.5082 121.137 77.9022 122.301Z" fill="#45474a" fill-rule="nonzero" opacity="1" stroke="none" vectornator:layerName="path"/>
<path d="M74.2212 50.093C73.8122 53.037 72.4582 58.938 67.9852 64.966C67.3642 65.803 66.3442 66.245 65.3052 66.156C61.8542 65.861 53.4252 65.226 44.7042 65.226C35.9832 65.226 27.5542 65.861 24.1032 66.156C23.0642 66.245 22.0442 65.803 21.4232 64.966C16.9502 58.937 15.5962 53.037 15.1872 50.093C15.0132 48.842 15.6132 47.606 16.7222 47C19.7942 45.321 27.5922 42.406 44.7032 42.406C61.8142 42.406 69.6122 45.321 72.6842 47C73.7952 47.606 74.3952 48.841 74.2212 50.093ZM67.6602 124.702C67.6602 124.702 58.0472 129.554 44.7052 129.554C31.3632 129.554 21.7502 124.702 21.7502 124.702C19.8732 130.084 19.1482 137.296 18.8812 141.178C18.7632 142.9 19.6902 144.525 21.2382 145.291C25.2652 147.283 33.8442 150.757 44.7052 150.757C55.5662 150.757 64.1452 147.283 68.1722 145.291C69.7202 144.525 70.6472 142.9 70.5292 141.178C70.2622 137.296 69.5372 130.084 67.6602 124.702Z" fill="#45474a" fill-rule="nonzero" opacity="1" stroke="none" vectornator:layerName="path"/>
<path d="M79.3392 51.39L87.3352 53.575C88.7912 53.973 89.6752 55.448 89.3392 56.92L89.0422 58.218L79.3392 56.062L79.3392 51.39Z" fill="#6f686c" fill-rule="nonzero" opacity="1" stroke="none" vectornator:layerName="path"/>
<path d="M19.9222 174.654C17.6462 173.963 15.5372 172.732 13.8152 171.091C13.3672 170.664 12.9322 170.2 12.3732 169.933C11.9872 169.749 11.5212 169.685 11.1192 169.799C13.5312 173.097 17.2272 175.393 21.4732 175.955C21.4732 175.94 21.4782 175.926 21.4782 175.912C21.4552 175.196 20.6062 174.862 19.9222 174.654Z" fill="#ffcc00" fill-rule="nonzero" opacity="1" stroke="none" vectornator:layerName="path"/>
<path d="M69.4882 174.654C71.7642 173.963 73.8732 172.732 75.5952 171.091C76.0432 170.664 76.4782 170.2 77.0372 169.933C77.4232 169.749 77.8892 169.685 78.2912 169.799C75.8792 173.097 72.1832 175.393 67.9372 175.955C67.9372 175.94 67.9322 175.926 67.9322 175.912C67.9552 175.196 68.8032 174.862 69.4882 174.654Z" fill="#ffcc00" fill-rule="nonzero" opacity="1" stroke="none" vectornator:layerName="path"/>
</g>
</g>
</svg>
