<?xml version="1.0" encoding="UTF-8" standalone="no"?>
<!DOCTYPE svg PUBLIC "-//W3C//DTD SVG 1.1//EN" "http://www.w3.org/Graphics/SVG/1.1/DTD/svg11.dtd">
<!-- Created with Vectornator (http://vectornator.io/) -->
<svg height="100%" stroke-miterlimit="10" style="fill-rule:nonzero;clip-rule:evenodd;stroke-linecap:round;stroke-linejoin:round;" version="1.1" viewBox="7.06706e-08 0 82.4874 173.457" width="100%" xml:space="preserve" xmlns="http://www.w3.org/2000/svg" xmlns:vectornator="http://vectornator.io" xmlns:xlink="http://www.w3.org/1999/xlink">
<defs/>
<g id="Layer-1" vectornator:layerName="Layer 1">
<g opacity="1" vectornator:layerName="g">
<path d="M4.12619 46.018C3.59019 42.257 3.32119 38.463 3.32119 34.664L3.32119 26.581C3.32119 11.901 15.2222 0 29.9022 0L41.2452 0L52.5882 0C67.2682 0 79.1692 11.901 79.1692 26.581L79.1692 34.664C79.1692 38.463 78.9002 42.257 78.3642 46.018L76.7752 57.166C76.1862 61.295 75.9202 65.464 75.9772 69.635L76.6182 115.929C76.6562 118.649 77.0852 121.35 77.8922 123.948C78.7382 126.672 79.1692 129.508 79.1692 132.36L79.1692 152.904C79.1692 164.255 69.9672 173.457 58.6152 173.457L41.2452 173.457L23.8762 173.457C12.5252 173.457 3.32219 164.255 3.32219 152.904L3.32219 132.359C3.32219 129.507 3.75219 126.671 4.59919 123.947C5.40619 121.349 5.83519 118.648 5.87319 115.928L6.51519 69.634C6.57319 65.463 6.30619 61.294 5.71719 57.165L4.12619 46.018Z" fill="#ff6f00" fill-rule="nonzero" opacity="1" stroke="none" vectornator:layerName="path"/>
<path d="M76.2712 48.31C76.7772 44.761 77.0312 41.18 77.0312 37.595L77.0312 29.967C77.0312 16.114 65.8012 4.883 51.9472 4.883L41.2432 4.883L30.5392 4.883C16.6862 4.883 5.45519 16.113 5.45519 29.967L5.45519 37.595C5.45519 41.18 5.70919 44.761 6.21519 48.31L7.71519 58.83C8.27119 62.727 8.52219 66.661 8.46819 70.597L7.86319 114.284C7.82719 116.851 7.42219 119.4 6.66119 121.851C5.86219 124.421 5.45619 127.097 5.45619 129.789L5.45619 149.176C5.45619 159.888 14.1402 168.572 24.8522 168.572L41.2432 168.572L57.6352 168.572C68.3472 168.572 77.0312 159.888 77.0312 149.176L77.0312 129.789C77.0312 127.097 76.6252 124.421 75.8262 121.851C75.0642 119.399 74.6592 116.851 74.6242 114.284L74.0192 70.597C73.9642 66.661 74.2162 62.727 74.7722 58.83L76.2712 48.31Z" fill="#ff8b00" fill-rule="nonzero" opacity="1" stroke="none" vectornator:layerName="path"/>
<path d="M8.51619 15.213C6.35919 12.05 15.7042 5.869 18.4592 8.026C21.2142 10.182 10.3132 17.848 8.51619 15.213Z" fill="#e9e8d8" fill-rule="nonzero" opacity="1" stroke="none" vectornator:layerName="path"/>
<path d="M5.36319 51.63C5.36319 51.63 1.02319 54.625 0.304188 56.062C-0.414812 57.5 0.304188 58.817 0.783188 58.697C1.26219 58.577 6.89219 56.181 6.89219 56.181L5.36319 51.63Z" fill="#ff6600" fill-rule="nonzero" opacity="1" stroke="none" vectornator:layerName="path"/>
<path d="M12.1612 94.803C12.2032 87.093 12.0952 80.454 11.8712 75.707C11.1522 60.494 8.39719 48.395 8.39719 48.395C7.48919 66.445 7.07019 81.098 6.95819 92.951C8.67019 93.731 10.4102 94.097 12.1612 94.803Z" fill="#45474a" fill-rule="nonzero" opacity="1" stroke="none" vectornator:layerName="path"/>
<path d="M6.94619 94.363C6.66919 130.944 9.35519 140.035 9.35519 140.035C11.2292 132.702 12.0492 112.986 12.1572 96.105C10.4412 95.568 8.70419 94.744 6.94619 94.363Z" fill="#45474a" fill-rule="nonzero" opacity="1" stroke="none" vectornator:layerName="path"/>
<path d="M70.3272 94.803C70.2852 87.093 70.3932 80.454 70.6172 75.707C71.3362 60.494 74.0912 48.395 74.0912 48.395C74.9992 66.445 75.4182 81.098 75.5302 92.951C73.8182 93.731 72.0772 94.097 70.3272 94.803Z" fill="#45474a" fill-rule="nonzero" opacity="1" stroke="none" vectornator:layerName="path"/>
<path d="M75.5422 94.363C75.8192 130.944 73.1332 140.035 73.1332 140.035C71.2592 132.702 70.4382 112.986 70.3312 96.105C72.0462 95.568 73.7832 94.744 75.5422 94.363Z" fill="#45474a" fill-rule="nonzero" opacity="1" stroke="none" vectornator:layerName="path"/>
<path d="M18.5462 168.524C18.0642 169.54 15.6532 169.405 13.1602 168.223C10.6682 167.041 9.03819 165.258 9.52019 164.242C10.0022 163.226 12.4132 163.361 14.9062 164.543C17.3992 165.725 19.0292 167.508 18.5462 168.524Z" fill="#ffcc00" fill-rule="nonzero" opacity="1" stroke="none" vectornator:layerName="path"/>
<path d="M73.9712 15.213C76.1282 12.05 66.7832 5.869 64.0282 8.026C61.2732 10.182 72.1742 17.848 73.9712 15.213Z" fill="#e9e8d8" fill-rule="nonzero" opacity="1" stroke="none" vectornator:layerName="path"/>
<path d="M77.1242 51.63C77.1242 51.63 81.4642 54.625 82.1832 56.062C82.9022 57.5 82.1832 58.817 81.7042 58.697C81.2252 58.577 75.5952 56.181 75.5952 56.181L77.1242 51.63Z" fill="#000000" fill-rule="nonzero" opacity="1" stroke="none" vectornator:layerName="path"/>
<path d="M63.9412 168.524C64.4232 169.54 66.8342 169.405 69.3272 168.223C71.8192 167.041 73.4492 165.258 72.9672 164.242C72.4852 163.226 70.0742 163.361 67.5812 164.543C65.0882 165.725 63.4592 167.508 63.9412 168.524Z" fill="#ffcc00" fill-rule="nonzero" opacity="1" stroke="none" vectornator:layerName="path"/>
<path d="M41.2442 132.249C58.8782 132.249 66.7842 128.775 66.7842 128.775L66.7842 155.249C66.7842 155.249 60.2662 162.556 41.2442 162.556L41.2442 162.556L41.2442 162.556L41.2442 162.556L41.2442 162.556C22.2222 162.556 15.7042 155.249 15.7042 155.249L15.7042 128.775C15.7042 128.775 23.6102 132.249 41.2442 132.249ZM41.2442 28.989L41.2442 28.989L41.2442 28.989L41.2442 28.989L41.2442 28.989C16.7462 28.989 10.5532 42.406 10.5532 42.406L13.8322 68.76C13.8322 68.76 27.8202 65.765 41.2442 65.765C54.6682 65.765 68.6562 68.76 68.6562 68.76L71.9342 42.406C71.9342 42.406 65.7422 28.989 41.2442 28.989Z" fill="#45474a" fill-rule="nonzero" opacity="1" stroke="none" vectornator:layerName="path"/>
</g>
</g>
</svg>
