<?xml version="1.0" encoding="UTF-8" standalone="no"?>
<!DOCTYPE svg PUBLIC "-//W3C//DTD SVG 1.1//EN" "http://www.w3.org/Graphics/SVG/1.1/DTD/svg11.dtd">
<!-- Created with Vectornator (http://vectornator.io/) -->
<svg height="100%" stroke-miterlimit="10" style="fill-rule:nonzero;clip-rule:evenodd;stroke-linecap:round;stroke-linejoin:round;" version="1.1" viewBox="5.07175e-07 0 81.8108 174.176" width="100%" xml:space="preserve" xmlns="http://www.w3.org/2000/svg" xmlns:vectornator="http://vectornator.io" xmlns:xlink="http://www.w3.org/1999/xlink">
<defs/>
<g id="Layer-1" vectornator:layerName="Layer 1">
<g opacity="1" vectornator:layerName="g">
<path d="M5.41345 57.159C5.44245 55.833 5.39545 54.505 5.27345 53.184L3.82745 37.562C2.88745 27.405 6.34345 14.373 13.5564 7.16C19.7564 0.96 29.3994 0 38.8604 0L42.9524 0C52.4134 0 62.0564 0.96 68.2564 7.16C75.4694 14.373 78.9254 27.405 77.9854 37.562L76.5384 53.184C76.4164 54.505 76.3694 55.832 76.3984 57.159L78.2904 131.411C78.2904 142.762 69.0884 174.176 57.7364 174.176L24.0744 174.176C12.7234 174.176 3.52045 142.762 3.52045 131.411L5.41345 57.159Z" fill="#e13e26" fill-rule="nonzero" opacity="1" stroke="none" vectornator:layerName="path"/>
<path d="M70.9634 63.07C70.9354 61.806 74.7544 56.03 74.8714 54.77L76.2504 39.879C77.1464 30.197 73.8524 17.774 66.9764 10.899C61.0664 4.989 51.8744 4.074 42.8564 4.074L38.9554 4.074C29.9374 4.074 20.7454 4.989 14.8354 10.899C7.96045 17.775 4.66545 30.197 5.56145 39.879L6.94045 54.77C7.05745 56.029 10.8754 61.805 10.8474 63.07L10.8474 132.129C10.8474 142.949 14.0414 170.102 24.8614 170.102L56.9484 170.102C67.7694 170.102 70.9634 142.95 70.9634 132.129L70.9634 63.07Z" fill="#ff6148" fill-rule="nonzero" opacity="1" stroke="none" vectornator:layerName="path"/>
<g opacity="1" vectornator:layerName="g">
<path d="M7.85245 60.375L7.85245 63.849L0.0664462 65.766C0.0664462 65.766-1.25155 60.375 7.85245 60.375Z" fill="#e13e26" fill-rule="nonzero" opacity="1" stroke="none" vectornator:layerName="path"/>
<path d="M9.77045 96.946C9.77045 97.164 9.76945 97.382 9.76945 97.6C9.76945 114.88 10.8474 132.13 10.8474 132.13C10.8474 132.13 15.1594 119.552 15.1594 114.88L15.1594 97.96C13.3784 97.537 11.5774 97.191 9.77045 96.946Z" fill="#45474a" fill-rule="nonzero" opacity="1" stroke="none" vectornator:layerName="path"/>
<path d="M15.1604 95.964L15.1604 80.201C15.1604 77.506 10.8484 63.071 10.8484 63.071C10.8484 63.071 9.90145 78.234 9.78245 94.368C11.5994 94.812 13.3864 95.364 15.1604 95.964Z" fill="#45474a" fill-rule="nonzero" opacity="1" stroke="none" vectornator:layerName="path"/>
<path d="M72.0404 96.946C72.0404 97.164 72.0414 97.382 72.0414 97.6C72.0414 114.88 70.9634 132.13 70.9634 132.13C70.9634 132.13 66.6504 119.552 66.6504 114.88L66.6504 97.96C68.4324 97.537 70.2334 97.191 72.0404 96.946Z" fill="#45474a" fill-rule="nonzero" opacity="1" stroke="none" vectornator:layerName="path"/>
<path d="M66.6504 95.964L66.6504 80.201C66.6504 77.506 70.9634 63.071 70.9634 63.071C70.9634 63.071 71.9104 78.234 72.0294 94.368C70.2114 94.812 68.4244 95.364 66.6504 95.964Z" fill="#45474a" fill-rule="nonzero" opacity="1" stroke="none" vectornator:layerName="path"/>
<path d="M73.9584 60.375L73.9584 63.849L81.7444 65.766C81.7444 65.766 83.0624 60.375 73.9584 60.375Z" fill="#e13e26" fill-rule="nonzero" opacity="1" stroke="none" vectornator:layerName="path"/>
<path d="M17.1364 75.528L10.6674 50.552C10.6674 50.552 17.4954 41.029 40.9054 41.029C64.3154 41.029 71.1434 50.552 71.1434 50.552L64.6744 75.528C64.6744 75.528 51.6364 72.473 40.9054 72.473C30.1744 72.474 17.1364 75.528 17.1364 75.528ZM62.6484 130.824C58.7284 131.729 48.7244 133.567 40.9054 133.567C33.0864 133.567 23.0824 131.729 19.1624 130.824C18.1114 130.581 17.1014 131.357 17.0634 132.435L16.2724 155.216C16.2504 155.843 16.5714 156.433 17.1104 156.752C26.2534 162.167 40.9054 161.418 40.9054 161.418C40.9054 161.418 55.5574 162.167 64.7004 156.752C65.2394 156.433 65.5604 155.842 65.5384 155.216L64.7474 132.435C64.7094 131.357 63.6994 130.581 62.6484 130.824Z" fill="#45474a" fill-rule="nonzero" opacity="1" stroke="none" vectornator:layerName="path"/>
<path d="M10.6674 13.103C16.0224 11.767 19.4874 5.664 19.2704 4.074C17.7234 4.922 16.2954 5.962 15.0204 7.236C13.3544 8.903 11.9014 10.899 10.6674 13.103Z" fill="#e9e8d8" fill-rule="nonzero" opacity="1" stroke="none" vectornator:layerName="path"/>
<path d="M71.1434 13.103C65.7874 11.767 62.3234 5.664 62.5404 4.074C64.0874 4.922 65.5154 5.962 66.7904 7.236C68.4564 8.903 69.9094 10.899 71.1434 13.103Z" fill="#e9e8d8" fill-rule="nonzero" opacity="1" stroke="none" vectornator:layerName="path"/>
</g>
</g>
</g>
</svg>
