<?xml version="1.0" encoding="UTF-8" standalone="no"?>
<!DOCTYPE svg PUBLIC "-//W3C//DTD SVG 1.1//EN" "http://www.w3.org/Graphics/SVG/1.1/DTD/svg11.dtd">
<!-- Created with Vectornator (http://vectornator.io/) -->
<svg height="100%" stroke-miterlimit="10" style="fill-rule:nonzero;clip-rule:evenodd;stroke-linecap:round;stroke-linejoin:round;" version="1.1" viewBox="1.03939e-07 0 93.0644 177.768" width="100%" xml:space="preserve" xmlns="http://www.w3.org/2000/svg" xmlns:vectornator="http://vectornator.io" xmlns:xlink="http://www.w3.org/1999/xlink">
<defs/>
<g id="Layer-1" vectornator:layerName="Layer 1">
<g opacity="1" vectornator:layerName="g">
<path d="M83.0117 15.84C82.3407 10.189 78.3977 5.455 72.9507 3.809C66.7767 1.943 57.6717 0 46.5317 0C35.3917 0 26.2867 1.943 20.1127 3.809C14.6657 5.455 10.7227 10.189 10.0517 15.84C8.70272 27.205 6.65972 49.057 6.65972 77.145C6.65972 108.998 10.1167 148.32 11.7777 165.375C12.2877 170.611 16.2437 174.862 21.4347 175.718C27.5017 176.719 36.3027 177.768 46.5307 177.768C56.7577 177.768 65.5597 176.718 71.6267 175.718C76.8167 174.862 80.7737 170.61 81.2837 165.375C82.9447 148.319 86.4017 108.998 86.4017 77.145C86.4027 49.056 84.3597 27.204 83.0117 15.84Z" fill="#ffa400" fill-rule="nonzero" opacity="1" stroke="none" vectornator:layerName="path"/>
<path d="M81.8287 18.209C81.1797 12.741 77.3647 8.161 72.0937 6.568C66.1197 4.763 57.3107 2.882 46.5317 2.882C35.7527 2.882 26.9437 4.762 20.9697 6.568C15.6987 8.161 11.8837 12.741 11.2347 18.209C9.92972 29.205 16.7227 45.176 16.7227 72.354C16.7227 103.175 17.9907 128.379 19.5977 144.881C20.0907 149.947 17.2277 172.075 22.2497 172.903C28.1197 173.871 36.6357 174.887 46.5317 174.887C56.4277 174.887 64.9437 173.871 70.8137 172.903C75.8357 172.075 72.9717 149.947 73.4657 144.881C75.0727 128.378 76.3407 103.174 76.3407 72.354C76.3407 45.176 83.1327 29.205 81.8287 18.209Z" fill="#ffe04a" fill-rule="nonzero" opacity="1" stroke="none" vectornator:layerName="path"/>
<path d="M8.33772 57.02C8.33772 57.02 2.74472 57.175 0.25472 60.473C-0.40128 61.342 0.29472 62.574 1.37572 62.446L8.33772 61.622L8.33772 57.02Z" fill="#ffa400" fill-rule="nonzero" opacity="1" stroke="none" vectornator:layerName="path"/>
<path d="M31.1917 2.329C26.8677 3.043 23.1367 3.974 20.1127 4.887C17.8797 5.562 15.9057 6.762 14.2997 8.326C14.4077 8.722 14.6837 9.096 15.0697 9.239C15.9057 9.55 16.8237 9.162 17.6297 8.781C21.8967 6.767 26.1637 4.753 30.4307 2.739C30.6847 2.62 30.9487 2.486 31.1917 2.329Z" fill="#e9e8d8" fill-rule="nonzero" opacity="1" stroke="none" vectornator:layerName="path"/>
<path d="M84.7257 57.02C84.7257 57.02 90.3187 57.175 92.8097 60.473C93.4657 61.342 92.7697 62.574 91.6887 62.446L84.7267 61.622L84.7267 57.02L84.7257 57.02Z" fill="#ffa400" fill-rule="nonzero" opacity="1" stroke="none" vectornator:layerName="path"/>
<path d="M61.8717 2.329C66.1957 3.043 69.9267 3.974 72.9507 4.887C75.1837 5.562 77.1577 6.762 78.7637 8.326C78.6557 8.722 78.3797 9.096 77.9937 9.239C77.1577 9.55 76.2397 9.162 75.4337 8.781C71.1667 6.767 66.8997 4.753 62.6327 2.739C62.3787 2.62 62.1147 2.486 61.8717 2.329Z" fill="#e9e8d8" fill-rule="nonzero" opacity="1" stroke="none" vectornator:layerName="path"/>
<g opacity="1" vectornator:layerName="g">
<path d="M19.5977 144.881L19.5977 170.618C19.5977 172.709 21.1207 174.479 23.1847 174.809C31.4207 176.125 46.5307 176.332 46.5307 176.332C46.5307 176.332 61.6407 176.125 69.8767 174.809C71.9417 174.479 73.4637 172.708 73.4637 170.618L73.4637 144.881L19.5977 144.881Z" fill="#45474a" fill-rule="nonzero" opacity="1" stroke="none" vectornator:layerName="path"/>
<path d="M46.5317 20.844C25.1087 20.844 12.8897 34.021 12.8897 34.021L16.7227 72.354C16.7227 72.354 29.6217 65.227 46.5317 65.227C63.4417 65.227 76.3407 72.354 76.3407 72.354L80.1737 34.021C80.1737 34.021 67.9547 20.844 46.5317 20.844Z" fill="#45474a" fill-rule="nonzero" opacity="1" stroke="none" vectornator:layerName="path"/>
</g>
<path d="M14.6177 138.5C14.5447 129.236 14.4557 118.695 14.3547 108.88C12.4007 107.897 10.4037 106.994 8.41272 106.083C8.67972 117.907 9.64072 129.106 10.7397 138.501L14.6177 138.501L14.6177 138.5Z" fill="#45474a" fill-rule="nonzero" opacity="1" stroke="none" vectornator:layerName="path"/>
<path d="M11.0717 141.255C12.8367 155.467 14.8067 164.898 14.8067 164.898C14.8067 164.898 14.7427 154.661 14.6387 141.081C13.4507 141.16 12.2617 141.216 11.0717 141.255Z" fill="#45474a" fill-rule="nonzero" opacity="1" stroke="none" vectornator:layerName="path"/>
<path d="M14.3147 104.995C14.1717 91.644 14.0097 80.229 13.8477 76.187C13.3687 64.208 10.0147 43.125 10.0147 43.125C10.0147 43.125 8.33772 65.389 8.33772 99.666C8.33772 99.714 8.33772 99.762 8.33772 99.81C10.2527 101.624 12.2527 103.347 14.3147 104.995Z" fill="#45474a" fill-rule="nonzero" opacity="1" stroke="none" vectornator:layerName="path"/>
<path d="M78.4457 138.5C78.5187 129.236 78.6077 118.695 78.7087 108.88C80.6627 107.897 82.6597 106.994 84.6507 106.083C84.3837 117.907 83.4227 129.106 82.3237 138.501L78.4457 138.501L78.4457 138.5Z" fill="#45474a" fill-rule="nonzero" opacity="1" stroke="none" vectornator:layerName="path"/>
<path d="M81.9917 141.255C80.2267 155.467 78.2567 164.898 78.2567 164.898C78.2567 164.898 78.3207 154.661 78.4257 141.081C79.6127 141.16 80.8017 141.216 81.9917 141.255Z" fill="#45474a" fill-rule="nonzero" opacity="1" stroke="none" vectornator:layerName="path"/>
<path d="M78.7487 104.995C78.8917 91.644 79.0537 80.229 79.2157 76.187C79.6947 64.208 83.0487 43.125 83.0487 43.125C83.0487 43.125 84.7257 65.389 84.7257 99.666C84.7257 99.714 84.7257 99.762 84.7257 99.81C82.8107 101.624 80.8107 103.347 78.7487 104.995Z" fill="#45474a" fill-rule="nonzero" opacity="1" stroke="none" vectornator:layerName="path"/>
</g>
</g>
</svg>
